<svg xmlns="http://www.w3.org/2000/svg" version="1.1" viewBox="0 0 216 144"><title>JSON Editor Icons</title><metadata/><rect width="16" height="16" x="4" y="4" fill="#1aae1c"/><rect width="16" height="16" x="28" y="4" fill="#ec3f29" fill-opacity=".941"/><rect width="16" height="16" x="52" y="4" fill="#4c4c4c"/><rect width="16" height="16" x="172" y="4" fill="#4c4c4c"/><rect width="16" height="16" x="196" y="4" fill="#4c4c4c"/><g fill="#fff"><rect width="10" height="2" x="7" y="11"/><rect width="2" height="10" x="11" y="7"/></g><g fill="#fff" transform="matrix(.70711 -.70711 .70711 .70711 19.029 12)"><rect width="10" height="2" x="7" y="11"/><rect width="2" height="10" x="11" y="7"/></g><rect width="7" height="7" x="55" y="7" fill="#fff" stroke-width="0"/><rect width="7" height="7" x="58" y="10" fill="#fff" stroke="#4c4c4c" stroke-width="2"/><rect width="7" height="7" x="58" y="10" fill="#fff" stroke-width="0"/><g fill="#fff" stroke-width="0"><rect width="8" height="2" x="198" y="11"/><rect width="12" height="2" x="198" y="7"/><rect width="4" height="2" x="198" y="15"/></g><g fill="#fff" stroke-width="0" transform="matrix(1 0 0 -1 -24 24)"><rect width="8" height="2" x="198" y="11"/><rect width="12" height="2" x="198" y="7"/><rect width="4" height="2" x="198" y="15"/></g><rect width="16" height="16" x="76" y="4" fill="#4c4c4c"/><path fill="#fff" stroke="#fff" stroke-width=".2" d="m85.104 6.0157-0.0156 1.4063c3.0267-0.2402 0.33008 3.6508 2.4844 4.5781-2.1869 1.0938 0.49191 4.9069-2.4531 4.5781l-0.0156 1.4219c5.7083 0.559 1.0326-5.1005 4.7031-5.2656v-1.4063c-3.613-0.027 1.1189-5.707-4.7031-5.3125z"/><path fill="#fff" stroke="#fff" stroke-width=".2" d="m82.781 5.9984 0.0156 1.4063c-3.0267-0.2402-0.33007 3.6507-2.4844 4.5781 2.1869 1.0938-0.49192 4.9069 2.4531 4.5781l0.0156 1.4219c-5.7083 0.559-1.0326-5.1004-4.7031-5.2656v-1.4063c3.613-0.027-1.1189-5.7071 4.7031-5.3125z"/><rect width="16" height="16" x="100" y="4" fill="#4c4c4c"/><path fill="#fff" d="m103.72 5.6719v12.719h3.0312v-1.5313h-1.3438v-9.625h1.375v-1.5625z"/><path fill="#fff" d="m112.22 5.6722v12.719h-3.0312v-1.5313h1.3438v-9.625h-1.375v-1.5625z"/><rect width="16" height="16" x="124" y="4" fill="#4c4c4c"/><path fill="#fff" d="m126.28 17.603h1.7896l1.1414-2.8641h5.6536l1.1486 2.8641h1.7656l-4.7869-11.161h-1.919z"/><path fill="#4c4c4c" d="m129.73 13.479 4.6085 0.01-2.3043-5.5498z"/><rect width="16" height="16" x="148" y="4" fill="#4c4c4c"/><path fill="#fff" d="m156.48 5.8917v2.1797l0.46093 2.3984h1.8281l0.39844-2.3984v-2.1797z"/><path fill="#fff" d="m152.52 5.8906v2.1797l0.46094 2.3984h1.8281l0.39844-2.3984v-2.1797z"/><rect width="16" height="16" x="4" y="28" fill="#d3d3d3"/><rect width="16" height="16" x="28" y="28" fill="#d3d3d3"/><rect width="16" height="16" x="52" y="28" fill="#d3d3d3" stroke-width="0"/><rect width="16" height="16" x="172" y="28" fill="#d3d3d3" stroke-width="0"/><rect width="16" height="16" x="196" y="28" fill="#d3d3d3" stroke-width="0"/><g fill="#fff" transform="translate(0 24)"><rect width="10" height="2" x="7" y="11"/><rect width="2" height="10" x="11" y="7"/></g><g fill="#fff" transform="matrix(.70711 -.70711 .70711 .70711 19.029 36)"><rect width="10" height="2" x="7" y="11"/><rect width="2" height="10" x="11" y="7"/></g><rect width="7" height="7" x="55" y="31" fill="#fff" stroke-width="0"/><rect width="7" height="7" x="58" y="34" fill="#fff" stroke="#d3d3d3" stroke-width="2"/><rect width="7" height="7" x="58" y="34" fill="#fff" stroke-width="0"/><g fill="#fff" stroke-width="0" transform="translate(0 24)"><rect width="8" height="2" x="198" y="11"/><rect width="12" height="2" x="198" y="7"/><rect width="4" height="2" x="198" y="15"/></g><g fill="#fff" stroke-width="0" transform="matrix(1 0 0 -1 -24 48)"><rect width="8" height="2" x="198" y="11"/><rect width="12" height="2" x="198" y="7"/><rect width="4" height="2" x="198" y="15"/></g><rect width="16" height="16" x="76" y="28" fill="#d3d3d3"/><path fill="#fff" stroke="#fff" stroke-width=".2" d="m85.104 30.016-0.0156 1.4063c3.0267-0.2402 0.33007 3.6508 2.4844 4.5781-2.187 1.0938 0.49191 4.9069-2.4531 4.5781l-0.0156 1.4219c5.7083 0.559 1.0326-5.1005 4.7031-5.2656v-1.4063c-3.613-0.027 1.1189-5.707-4.7031-5.3125z"/><path fill="#fff" stroke="#fff" stroke-width=".2" d="m82.781 29.998 0.0156 1.4063c-3.0267-0.2402-0.33008 3.6507-2.4844 4.5781 2.1869 1.0938-0.49191 4.9069 2.4531 4.5781l0.0156 1.4219c-5.7083 0.559-1.0326-5.1004-4.7031-5.2656v-1.4063c3.613-0.027-1.1189-5.7071 4.7031-5.3125z"/><rect width="16" height="16" x="100" y="28" fill="#d3d3d3"/><path fill="#fff" d="m103.72 29.672v12.719h3.0312v-1.5313h-1.3438v-9.625h1.375v-1.5625z"/><path fill="#fff" d="m112.22 29.672v12.719h-3.0312v-1.5313h1.3438v-9.625h-1.375v-1.5625z"/><rect width="16" height="16" x="124" y="28" fill="#d3d3d3"/><path fill="#fff" d="m126.28 41.603h1.7896l1.1414-2.8641h5.6536l1.1486 2.8641h1.7656l-4.7869-11.161h-1.919z"/><path fill="#d3d3d3" d="m129.73 37.479 4.6085 0.01-2.3043-5.5498z"/><rect width="16" height="16" x="148" y="28" fill="#d3d3d3"/><path fill="#fff" d="m156.48 29.892v2.1797l0.46093 2.3984h1.8281l0.39844-2.3984v-2.1797z"/><path fill="#fff" d="m152.52 29.891v2.1797l0.46094 2.3984h1.8281l0.39844-2.3984v-2.1797z"/><rect width="12" height="2" x="54" y="64" fill="#4c4c4c" fill-opacity=".984"/><rect width="3" height="3" x="80" y="52" fill="#4c4c4c" fill-opacity=".984"/><rect width="3" height="3" x="85" y="52" fill="#4c4c4c" fill-opacity=".984"/><rect width="3" height="3" x="80" y="58" fill="#4c4c4c" fill-opacity=".984"/><rect width="3" height="3" x="85" y="58" fill="#4c4c4c" fill-opacity=".984"/><rect width="3" height="3" x="80" y="64" fill="#4c4c4c" fill-opacity=".984"/><rect width="3" height="3" x="85" y="64" fill="#4c4c4c" fill-opacity=".984"/><circle cx="110.06" cy="57.939" r="4.744" fill="none" stroke="#4c4c4c" stroke-linecap="round" stroke-linejoin="round" stroke-width="2"/><rect width="4.23" height="6.405" x="116.65" y="-31.798" fill="#4c4c4c" fill-opacity=".984" transform="matrix(.70711 .70711 -.70711 .70711 0 0)"/><path fill="#4c4c4c" fill-rule="evenodd" d="m125 56 13.77 0.095-6.7703 7.905z"/><path fill="#4c4c4c" fill-rule="evenodd" d="m149 64 13.77-0.095-6.7703-7.905z"/><rect width="12" height="2" x="54" y="53" fill="#4c4c4c" fill-opacity=".984"/><rect width="13" height="2" x="53" y="-56" fill="#4c4c4c" fill-opacity=".984" transform="rotate(90)"/><rect width="13" height="2" x="53" y="-66" fill="#4c4c4c" fill-opacity=".984" transform="rotate(90)"/><rect width="12" height="1" x="54" y="57" fill="#4c4c4c" fill-opacity=".984"/><rect width="12" height="2" x="54" y="88" fill="#d3d3d3"/><rect width="3" height="3" x="80" y="76" fill="#d3d3d3"/><rect width="3" height="3" x="85" y="76" fill="#d3d3d3"/><rect width="3" height="3" x="80" y="82" fill="#d3d3d3"/><rect width="3" height="3" x="85" y="82" fill="#d3d3d3"/><rect width="3" height="3" x="80" y="88" fill="#d3d3d3"/><rect width="3" height="3" x="85" y="88" fill="#d3d3d3"/><circle cx="110.06" cy="81.939" r="4.744" fill="none" stroke="#d3d3d3" stroke-linecap="round" stroke-linejoin="round" stroke-width="2"/><rect width="4.23" height="6.405" x="133.62" y="-14.827" fill="#d3d3d3" stroke-width="0" transform="matrix(.70711 .70711 -.70711 .70711 0 0)"/><path fill="#d3d3d3" fill-rule="evenodd" stroke-width="0" d="m125 80 13.77 0.09499-6.7703 7.905z"/><path fill="#d3d3d3" fill-rule="evenodd" stroke-width="0" d="m149 88 13.77-0.095-6.7703-7.905z"/><rect width="12" height="2" x="54" y="77" fill="#d3d3d3"/><rect width="13" height="2" x="77" y="-56" fill="#d3d3d3" transform="rotate(90)"/><rect width="13" height="2" x="77" y="-66" fill="#d3d3d3" transform="rotate(90)"/><rect width="12" height="1" x="54" y="81" fill="#d3d3d3"/><rect width="16" height="2" x="76" y="101" fill="#fff" fill-opacity=".8"/><rect width="16" height="2" x="76" y="105" fill="#fff" fill-opacity=".8"/><rect width="9" height="2" x="76" y="109" fill="#fff" fill-opacity=".8"/><rect width="12" height="2" x="76" y="125" fill="#fff" fill-opacity=".8"/><rect width="10" height="2" x="76" y="137" fill="#fff" fill-opacity=".8"/><rect width="10" height="2" x="82" y="129" fill="#fff" fill-opacity=".8"/><rect width="9" height="2" x="82" y="133" fill="#fff" fill-opacity=".8"/><path fill="#fff" d="m36.398 100.03c-0.42336-0.013-0.84685 0.01-1.2656 0.062-1.6566 0.2196-3.2446 0.9739-4.5078 2.2266l-1.625-1.7149-2.3242 7.7129 7.8262-1.9062-1.8047-1.9063c1.5977-1.5308 4.0487-1.8453 5.9844-0.7207 1.9712 1.1452 2.882 3.3975 2.3086 5.5508s-2.5339 3.6953-4.8301 3.6953v3.0742c3.5508 0 6.7104-2.4113 7.6504-5.9414s-0.61846-7.2736-3.7109-9.0703c-1.1597-0.6738-2.4311-1.0231-3.7012-1.0625z" color="#000" color-rendering="auto" image-rendering="auto" opacity=".8" shape-rendering="auto" solid-color="#000000" style="block-progression:tb;isolation:auto;mix-blend-mode:normal;text-decoration-color:#000;text-decoration-line:none;text-decoration-style:solid;text-indent:0;text-transform:none;white-space:normal"/><path fill="#fff" d="m59.723 99.963c-1.2701 0.039-2.5415 0.3887-3.7012 1.0625-3.0925 1.7967-4.6509 5.5402-3.7109 9.0703s4.0977 5.9414 7.6484 5.9414v-3.0742c-2.2962 0-4.2567-1.542-4.8301-3.6953s0.33743-4.4056 2.3086-5.5508c1.9357-1.1246 4.3886-0.8102 5.9863 0.7207l-1.8066 1.9063 7.8281 1.9062-2.3242-7.7129-1.627 1.7168c-1.2634-1.2531-2.8489-2.0088-4.5059-2.2285-0.41878-0.055-0.84226-0.076-1.2656-0.062z" color="#000" color-rendering="auto" image-rendering="auto" opacity=".8" shape-rendering="auto" solid-color="#000000" style="block-progression:tb;isolation:auto;mix-blend-mode:normal;text-decoration-color:#000;text-decoration-line:none;text-decoration-style:solid;text-indent:0;text-transform:none;white-space:normal"/><path fill="#fff" d="m10.5 100v2h-2.5l4 5 4-5h-2.5v-2h-3z" opacity=".8"/><path fill="none" stroke="#fff" stroke-linecap="square" stroke-width="1.966" d="m4.9851 108.02 14.03-0.03" opacity=".8"/><path fill="none" stroke="#fff" stroke-linecap="square" stroke-width="1.966" d="m4.985 132.02 14.03-0.03" opacity=".8"/><path fill="#4d4d4d" d="m36.398 123.96c-0.42336-0.013-0.84685 0.01-1.2656 0.062-1.6566 0.2196-3.2446 0.9739-4.5078 2.2266l-1.625-1.7149-2.3242 7.7129 7.8262-1.9062-1.8047-1.9063c1.5977-1.5308 4.0487-1.8453 5.9844-0.7207 1.9712 1.1453 2.882 3.3975 2.3086 5.5508s-2.5339 3.6953-4.8301 3.6953v3.0742c3.5508 0 6.7104-2.4093 7.6504-5.9394s-0.61846-7.2756-3.7109-9.0723c-1.1597-0.6737-2.4311-1.0231-3.7012-1.0625z" color="#000" color-rendering="auto" image-rendering="auto" opacity=".4" shape-rendering="auto" solid-color="#000000" style="block-progression:tb;isolation:auto;mix-blend-mode:normal;text-decoration-color:#000;text-decoration-line:none;text-decoration-style:solid;text-indent:0;text-transform:none;white-space:normal"/><path fill="#4d4d4d" d="m59.723 123.96c-1.2701 0.039-2.5415 0.3888-3.7012 1.0625-3.0925 1.7967-4.6509 5.5422-3.7109 9.0723s4.0977 5.9394 7.6484 5.9394v-3.0742c-2.2962 0-4.2567-1.542-4.8301-3.6953s0.33743-4.4055 2.3086-5.5508c1.9357-1.1246 4.3886-0.8102 5.9863 0.7207l-1.8066 1.9063 7.8281 1.9062-2.3242-7.7129-1.627 1.7168c-1.2634-1.2531-2.8489-2.0088-4.5059-2.2285-0.41878-0.055-0.84226-0.076-1.2656-0.062z" color="#000" color-rendering="auto" image-rendering="auto" opacity=".4" shape-rendering="auto" solid-color="#000000" style="block-progression:tb;isolation:auto;mix-blend-mode:normal;text-decoration-color:#000;text-decoration-line:none;text-decoration-style:solid;text-indent:0;text-transform:none;white-space:normal"/><path fill="#fff" d="m10.5 116v-2h-2.5l4-5 4 5h-2.5v2h-3z" opacity=".8"/><path fill="#fff" d="m10.5 129v-2h-2.5l4-5 4 5h-2.5v2h-3z" opacity=".8"/><path fill="#fff" d="m10.5 135v2h-2.5l4 5 4-5h-2.5v-2h-3z" opacity=".8"/><path fill="#4d4d4d" fill-opacity=".902" stroke-width="0" d="m16.667 60.073-7.6674 4.4268v-4.4268-4.4268l3.8337 2.2134z"/><path fill="#4d4d4d" fill-opacity=".902" stroke-width="0" d="m-31.5 60.073-7.6674 4.4268v-4.4268-4.4268l3.8337 2.2134z" transform="scale(-1,1)"/><path fill="#4d4d4d" fill-opacity=".902" stroke-width="0" d="m16.667 60.073-7.6674 4.4268v-4.4268-4.4268l3.8337 2.2134z" transform="matrix(0 1 -1 0 72.007 71.788)"/><path fill="#4d4d4d" fill-opacity=".902" stroke-width="0" d="m16.667 60.073-7.6674 4.4268v-4.4268-4.4268l3.8337 2.2134z" transform="matrix(0,-1,-1,0,96,96)"/><path fill="#fbb917" fill-rule="evenodd" stroke="#fbb917" stroke-linejoin="round" stroke-width="1.652" d="m171.83 65.174h16.349l-8.1743-13.348z"/><path fill="#fff" fill-rule="evenodd" d="m179 55v6h2v-6"/><path fill="#fff" fill-rule="evenodd" d="m179 62v2h2v-2"/><path fill="#fff" fill-opacity=".8" fill-rule="evenodd" stroke="#fff" stroke-linejoin="round" stroke-opacity=".8" stroke-width="1" d="m99.994 113.02 2.0056 1.9614 7-6.9558 3 0.97227 2-1 1-2v-3l-3 3-3-3 3-3h-3l-2 1-1 2 0.99437 3.0221z"/></svg>